<svg xmlns="http://www.w3.org/2000/svg" id="Слой_1" x="0px" y="0px" viewBox="0 0 244.36 60.058" xml:space="preserve">
<style type="text/css">
	.st0{fill:#FDBC1A;}
</style>
  <path class="st0" d="M28.627,11.539c0,4.421,0,8.039-3.216,11.255c-2.814,2.814-6.833,4.422-10.853,4.422  c-8.039,0-14.47-4.823-14.47-13.265c0-8.441,6.431-13.265,14.47-13.265c4.422,0,10.853,2.01,12.863,6.431l-8.843,3.216  c-0.804-1.206-2.01-2.01-3.618-2.01c-3.617,0-5.225,3.216-5.225,6.029c0,2.814,1.608,5.627,4.823,5.627  c1.608,0,3.216-0.804,3.617-2.412h-4.019v-6.029H28.627z"/>
  <path class="st0" d="M53.548,1.088v15.274c0,7.637-4.823,10.853-12.059,10.853c-7.235,0-12.059-3.216-12.059-10.853V1.088h9.647  v14.47c0,2.01,0,3.618,2.412,3.618c2.814,0,2.814-1.608,2.814-3.618V1.088H53.548z"/>
  <path class="st0" d="M68.019,17.568l-0.804-4.823c-0.402-0.804-0.804-2.01-0.804-3.216h-0.402l-1.608,8.039H68.019z M61.99,26.813  H51.941l8.843-25.725h10.451l9.245,25.725h-9.647l-1.206-3.216h-6.833L61.99,26.813z"/>
  <path class="st0" d="M90.529,12.343h0.402c1.608,0,3.216,0,3.216-2.01s-1.608-2.412-3.216-2.412h-0.402V12.343z M80.48,1.088h11.255  c6.029,0,10.853,2.412,10.853,8.843c0,4.02-1.608,5.627-5.226,6.833c0.804,0.402,1.206,0.804,1.608,1.608l5.627,8.441H93.744  l-4.02-8.039v8.039H80.48V1.088z"/>
  <path class="st0" d="M118.264,17.568l-1.206-4.823c-0.402-0.804-0.402-2.01-0.804-3.216h-0.402l-1.608,8.039H118.264z   M111.832,26.813h-10.049l9.245-25.725h10.451l9.245,25.725h-10.049l-0.804-3.216h-7.235L111.832,26.813z"/>
  <path class="st0" d="M131.528,1.088h9.245l8.441,14.068h0.402c-0.402-2.01-0.804-4.02-0.804-6.431V1.088h8.843v25.725h-8.843  l-8.441-13.667h-0.402c0.402,2.01,0.804,3.618,0.804,5.225v8.441h-9.245V1.088z"/>
  <polygon class="st0" points="158.861,1.088 178.959,1.088 178.959,9.529 173.734,9.127 173.734,26.813 164.087,26.813   164.087,9.127 158.861,9.529 "/>
  <polygon class="st0" points="179.763,1.088 197.047,1.088 197.047,7.921 189.41,7.921 189.41,10.735 196.645,10.735 196.645,17.166   189.41,17.166 189.41,19.98 197.449,19.98 197.449,26.813 179.763,26.813 "/>
  <polygon class="st0" points="199.057,1.088 216.743,1.088 216.743,7.921 208.704,7.921 208.704,10.735 215.939,10.735   215.939,17.166 208.704,17.166 208.704,19.98 216.743,19.98 216.743,26.813 199.057,26.813 "/>
  <path class="st0" d="M227.998,19.176h0.402c3.216,0,5.627-1.608,5.627-4.823c0-3.618-2.01-5.225-5.627-5.225h-0.402V19.176z   M218.351,1.088h9.647c8.843,0,15.676,3.617,15.676,13.264c0,7.637-5.628,12.461-13.265,12.461h-12.059V1.088z"/>
  <polygon class="st0" points="52.343,32.441 72.44,32.441 72.44,40.882 67.215,40.48 67.215,58.568 57.568,58.568 57.568,40.48   52.343,40.882 "/>
  <path class="st0" d="M82.087,45.705c0,2.814,2.01,4.823,4.824,4.823c2.814,0,4.823-2.01,4.823-4.823c0-2.814-2.01-5.225-4.823-5.225  C83.695,40.48,82.087,42.891,82.087,45.705z M101.381,45.705c0,8.039-6.431,13.265-14.47,13.265c-8.039,0-14.47-5.225-14.47-13.265  c0-8.441,6.431-13.666,14.47-13.666C94.95,32.039,101.381,37.264,101.381,45.705z"/>
  <path class="st0" d="M125.901,32.441v15.274c0,7.637-4.824,11.255-12.059,11.255c-7.235,0-12.059-3.618-12.059-11.255V32.441h9.647  v14.47c0,2.01,0,4.02,2.412,4.02s2.412-2.01,2.412-4.02v-14.47H125.901z"/>
  <path class="st0" d="M154.842,43.293c0,4.02,0,7.637-3.216,10.853c-2.814,3.216-6.833,4.823-10.853,4.823  c-8.039,0-14.471-4.823-14.471-13.265s6.431-13.666,14.471-13.666c4.421,0,10.853,2.412,12.863,6.833l-8.843,3.216  c-0.804-1.608-2.01-2.01-3.618-2.01c-3.216,0-5.225,2.814-5.225,6.029c0,2.814,1.608,5.627,4.823,5.627  c1.608,0,3.216-0.804,4.02-2.412h-4.422v-6.029H154.842z"/>
  <polygon class="st0" points="155.243,32.441 164.488,32.441 164.488,41.284 170.116,41.284 170.116,32.441 179.361,32.441   179.361,58.568 170.116,58.568 170.116,49.323 164.488,49.323 164.488,58.568 155.243,58.568 "/>
  <path class="st0" d="M190.616,54.548c0,2.814-2.412,4.422-5.226,4.422c-2.412,0-4.823-1.608-4.823-4.422  c0-2.814,2.412-4.422,4.823-4.422C188.204,50.127,190.616,51.734,190.616,54.548z"/>
  <path class="st0" d="M188.204,36.46c0,1.608-1.206,2.814-2.814,2.814c-1.608,0-2.814-1.206-2.814-2.814  c0-2.01,1.206-3.216,2.814-3.216C186.998,33.244,188.204,34.45,188.204,36.46z M189.41,36.46c0-2.814-2.01-4.02-4.02-4.02  c-2.01,0-3.617,1.206-3.617,4.02c0,2.412,1.608,3.618,3.617,3.618C187.4,40.078,189.41,38.872,189.41,36.46z M184.988,36.46h0.402  l0.804,2.01h1.206l-1.206-2.01c0.402,0,0.804-0.402,0.804-1.206c0-0.804-0.402-1.206-1.608-1.206h-1.608v4.422h1.206V36.46z   M184.988,36.058v-1.206h0.402c0.402,0,0.804,0,0.804,0.402c0,0.402,0,0.804-0.402,0.804H184.988z"/>
</svg>
