<svg xmlns="http://www.w3.org/2000/svg" xmlns:xlink="http://www.w3.org/1999/xlink" width="188" height="44" viewBox="0 0 188 44">
  <defs>
    <path id="bnbqa" d="M323.5 64.14h12.8l-9.75 33.6h-12.08l-4.11-16.45-3.99 16.45h-11.74l-9.5-33.6h12.56l3.52 16.46 3.63-16.46h11.27l3.87 16.46zm58.33 0V87.7h10.68v10.05H368.8v-33.6zm-38.73 33.6h-13.26l11.27-33.6h14.31l10.92 33.6h-12.68l-1.29-5.14h-7.98zm3.05-12.57h4.46l-2.11-9.83zm70.53-22.74H229.62V59h187.06zM416.56 95c0 1.6-1.4 2.74-2.81 2.74a2.74 2.74 0 1 1 0-5.48 2.74 2.74 0 0 1 2.81 2.74m-5.16 0c0 1.26.94 2.29 2.35 2.29 1.29 0 2.34-.92 2.34-2.29a2.32 2.32 0 0 0-2.34-2.29A2.32 2.32 0 0 0 411.4 95m5.4-30.86v9.49h-7.75v24.11h-13.02V73.63h-7.63v-9.49zm-1.88 32.35h-.7l-.6-1.03h-.46v1.03h-.59v-2.86h1.3c.81 0 1.17.34 1.17.8 0 .57-.36.8-.82.91l.7 1.03zm-1.76-1.6h.59c.35 0 .7 0 .7-.46s-.35-.46-.7-.46h-.6zM229.62 64.03h16.2c9.5 0 17.13 5.14 17.13 16.91 0 11.55-7.4 16.8-17.25 16.8h-16.08zm20.19 16.91c0-5.6-2.7-7.08-6.8-7.08h-1.07v13.83H243c4.1 0 6.8-1.6 6.8-6.75m34.86-2.74h-9.15v2.86h7.98v6.97h-7.98v2.86h9.15v6.85h-18.9v-26.4h18.9zm-55.04 21.37h187.06V103H229.62z"/>
  </defs>
  <g>
    <g transform="translate(-229 -59)"><use fill="#febd17" xlink:href="#bnbqa"/></g>
  </g>
</svg>
