<svg xmlns="http://www.w3.org/2000/svg" id="Layer_1" x="0px" y="0px" viewBox="0 0 307 123.78" xml:space="preserve">
<style type="text/css">
	.st0{fill:#FEBD18;}
</style>
  <path id="path4490" class="st0" d="M307.75,0.003L-0.249,0v123.78h307.997"/>
  <path id="path4496" d="M20.75,60.609h266v5.041h-266V60.609z"/>
  <g>
	<path d="M50.172,37.949c0,2.025-0.165,3.755-0.495,5.188c-0.51,2.224-1.729,4.25-3.656,6.076   c-2.734,2.586-6.389,3.877-10.969,3.877c-4.66,0-8.301-1.315-10.918-3.952c-1.383-1.383-2.331-3.12-2.841-5.211   c-0.362-1.482-0.543-3.474-0.543-5.977V18.507h8.769v18.239c0,1.463,0.024,2.558,0.075,3.283c0.165,2.288,1.21,3.882,3.137,4.787   c0.791,0.378,1.664,0.568,2.618,0.568c2.142,0,3.755-0.748,4.842-2.245c0.808-1.102,1.21-3.234,1.21-6.391V18.509h8.769v19.44   H50.172z"/>
    <path d="M97.182,52.226H85.844L74.455,37.602v14.624h-8.769v-33.72h8.769v13.909l10.695-13.909h10.795l-13.363,15.96L97.182,52.226   z"/>
    <path d="M137.57,52.226h-10.894l-8.374-12.944v12.944h-8.769v-33.72h13.635c3.985,0,6.933,1.195,8.844,3.583   c1.548,1.926,2.322,4.192,2.322,6.792c0,2.983-0.89,5.361-2.668,7.141c-1.135,1.135-2.7,1.926-4.694,2.372L137.57,52.226z    M125.244,29.365c0-1.199-0.438-2.209-1.313-3.03c-0.826-0.772-2.157-1.156-3.991-1.156h-1.636v8.398h1.636   c1.851,0,3.182-0.386,3.991-1.158C124.806,31.58,125.244,30.562,125.244,29.365z"/>
    <path d="M181.739,52.226h-9.363l-2.174-5.88h-12.104l-2.322,5.88h-9.264l12.968-33.72h9.56L181.739,52.226z M167.83,39.678   l-3.631-10.744l-3.68,10.744H167.83z"/>
    <path d="M202.835,52.226h-8.769v-33.72h8.769V52.226z"/>
    <path d="M252.043,52.226h-8.769l-16.131-20.65v20.65h-8.769v-33.72h8.769l16.131,20.628V18.507h8.769V52.226z"/>
    <path d="M286.75,52.226h-19.194v-33.72h19.194v7.311h-10.424v5.756h9.856v7.311h-9.856v6.028h10.424V52.226z"/>
</g>
  <g>
	<path d="M57.811,91.479c0,4.545-1.513,8.536-4.538,11.97c-3.449,3.909-8.117,5.862-14.004,5.862   c-5.872,0-10.532-1.955-13.983-5.862c-3.025-3.434-4.536-7.423-4.536-11.97c0-2.076,0.409-4.206,1.226-6.391   c0.817-2.182,1.913-4.05,3.287-5.604c3.449-3.909,8.119-5.862,14.005-5.862s10.554,1.955,14.004,5.862   C56.296,82.919,57.811,86.915,57.811,91.479z M48.784,91.479c0-2.361-0.755-4.402-2.264-6.123   c-1.933-2.197-4.352-3.295-7.252-3.295c-2,0-3.812,0.562-5.436,1.684c-1.622,1.124-2.778,2.62-3.466,4.487   c-0.394,1.066-0.59,2.147-0.59,3.246c0,2.262,0.753,4.288,2.262,6.074c1.87,2.214,4.279,3.321,7.232,3.321   c2.951,0,5.369-1.1,7.252-3.295C48.029,95.821,48.784,93.79,48.784,91.479z"/>
    <path d="M90.899,81.886H80.424v5.715h9.54v7.259h-9.54v13.245h-8.709V74.627h19.183V81.886z"/>
    <path d="M123.667,81.886h-10.474v5.715h9.54v7.259h-9.54v13.245h-8.709V74.627h19.183V81.886z"/>
    <path d="M145.961,108.108h-8.709V74.627h8.709V108.108z"/>
    <path d="M185.499,107.323c-2.845,1.127-5.477,1.693-7.898,1.693c-4.219,0-7.996-1.351-11.332-4.048   c-4.251-3.449-6.378-7.946-6.378-13.49c0-5.559,2.127-10.063,6.378-13.516c3.336-2.696,7.139-4.046,11.405-4.046   c2.322,0,4.93,0.566,7.825,1.691v10.426c-0.819-1.005-1.654-1.76-2.506-2.272c-1.557-0.94-3.226-1.408-5.01-1.408   c-2.26,0-4.225,0.681-5.896,2.041c-2.113,1.723-3.168,4.084-3.168,7.085c0,2.984,1.055,5.338,3.168,7.059   c1.669,1.36,3.635,2.043,5.896,2.043c1.784,0,3.453-0.471,5.01-1.408c0.835-0.495,1.669-1.252,2.506-2.273V107.323z"/>
    <path d="M208.116,108.108h-8.709V74.627h8.709V108.108z"/>
    <path d="M255.355,108.108h-9.295l-2.158-5.838h-12.02l-2.303,5.838h-9.198l12.876-33.481h9.494L255.355,108.108z M241.547,95.648   l-3.606-10.668l-3.654,10.668H241.547z"/>
    <path d="M286.75,108.108h-19.157V74.627h8.709v26.221h10.448V108.108z"/>
</g>
</svg>
