<svg xmlns="http://www.w3.org/2000/svg" id="Layer_1" x="0px" y="0px" viewBox="0 0 595.3 841.9" xml:space="preserve">
<style type="text/css">
	.st0{fill:#282828;}
</style>
  <g>
	<ellipse class="st0" cx="281.9" cy="603.1" rx="51.5" ry="50.3"/>
    <ellipse class="st0" cx="441.7" cy="603.1" rx="51.5" ry="50.3"/>
    <path class="st0" d="M542.8,254.7H186.1c-0.8,0-1.6,0.2-2.4,0.2l-9.1-45.3c-1.6-12-9.9-19.2-25.3-21.3H19.2   c-29.6,0.1-30.5,73.1,37.3,63.7l65.6-0.6l11.6,54.5v0.1L169,480.6c0,28.3,23.6,51.4,52.4,51.4h286c28.8,0,52.4-23.1,52.4-51.4   L595.1,306C595.3,277.8,571.7,254.7,542.8,254.7z M236.4,480.8l-1.2,0.1c-9.7,1.2-18.7-5.5-20-14.6L195,328.7   c-1.4-9.4,5.7-18.1,15.7-19.3l1.2-0.1c9.7-1.2,18.7,5.5,20,14.6l20.2,137.5C253.5,470.9,246.4,479.7,236.4,480.8z M327.8,481.3   l-1.3,0.1c-9.8,0.7-18.5-6.4-19.2-15.7l-11.5-138.2c-0.8-9.4,6.7-17.8,16.7-18.4l1.3-0.1c9.8-0.7,18.5,6.4,19.2,15.7l11.5,138.2   C345.3,472.5,337.8,480.7,327.8,481.3z M433.7,464.8c-0.1,9.4-8.4,17-18.3,16.9h-1.3c-9.9-0.1-17.9-7.9-17.8-17.3l2.3-138.6   c0.1-9.4,8.4-17,18.3-16.9h1.3c9.9,0.1,17.9,7.9,17.8,17.3L433.7,464.8z M539.1,329.4l-23.6,137.1c-1.5,9.1-10.7,15.5-20.3,14.2   l-1.2-0.1c-10-1.4-16.9-10.2-15.2-19.6l23.5-137.1c1.5-9.1,10.7-15.5,20.3-14.2l1.2,0.1C533.9,311.2,540.8,320,539.1,329.4z"/>
</g>
</svg>
